<svg id="visual" viewBox="0 0 960 540" width="960" height="540" xmlns="http://www.w3.org/2000/svg" xmlns:xlink="http://www.w3.org/1999/xlink" version="1.1"><g stroke-width="1" stroke-linejoin="bevel"><path d="M508 306L626 237L487 222Z" fill="#97bbdd" stroke="#97bbdd"></path><path d="M508 306L623 340L626 237Z" fill="#5675d0" stroke="#5675d0"></path><path d="M626 237L613 152L487 222Z" fill="#97bbdd" stroke="#97bbdd"></path><path d="M613 152L500 132L487 222Z" fill="#6725a9" stroke="#6725a9"></path><path d="M500 132L386 213L487 222Z" fill="#5b84d5" stroke="#5b84d5"></path><path d="M487 222L364 323L508 306Z" fill="#97bbdd" stroke="#97bbdd"></path><path d="M753 178L687 131L626 237Z" fill="#5b84d5" stroke="#5b84d5"></path><path d="M626 237L687 131L613 152Z" fill="#5664ca" stroke="#5664ca"></path><path d="M613 152L615 0L500 132Z" fill="#72a1db" stroke="#72a1db"></path><path d="M623 340L712 339L626 237Z" fill="#603fb6" stroke="#603fb6"></path><path d="M386 213L364 323L487 222Z" fill="#83aedc" stroke="#83aedc"></path><path d="M508 306L625 475L623 340Z" fill="#603fb6" stroke="#603fb6"></path><path d="M712 339L753 178L626 237Z" fill="#6725a9" stroke="#6725a9"></path><path d="M364 323L433 443L508 306Z" fill="#5a53c1" stroke="#5a53c1"></path><path d="M623 340L704 440L712 339Z" fill="#6593d8" stroke="#6593d8"></path><path d="M433 443L625 475L508 306Z" fill="#83aedc" stroke="#83aedc"></path><path d="M625 475L704 440L623 340Z" fill="#5675d0" stroke="#5675d0"></path><path d="M712 339L829 324L753 178Z" fill="#83aedc" stroke="#83aedc"></path><path d="M709 0L615 0L687 131Z" fill="#5675d0" stroke="#5675d0"></path><path d="M687 131L615 0L613 152Z" fill="#5a53c1" stroke="#5a53c1"></path><path d="M500 132L310 91L386 213Z" fill="#5664ca" stroke="#5664ca"></path><path d="M615 0L444 0L500 132Z" fill="#5a53c1" stroke="#5a53c1"></path><path d="M850 407L829 324L712 339Z" fill="#6725a9" stroke="#6725a9"></path><path d="M444 0L310 91L500 132Z" fill="#603fb6" stroke="#603fb6"></path><path d="M386 213L192 228L364 323Z" fill="#6725a9" stroke="#6725a9"></path><path d="M433 443L515 540L625 475Z" fill="#83aedc" stroke="#83aedc"></path><path d="M625 475L725 540L704 440Z" fill="#6725a9" stroke="#6725a9"></path><path d="M515 540L600 540L625 475Z" fill="#5664ca" stroke="#5664ca"></path><path d="M704 440L850 407L712 339Z" fill="#97bbdd" stroke="#97bbdd"></path><path d="M850 73L709 0L687 131Z" fill="#5b84d5" stroke="#5b84d5"></path><path d="M850 73L687 131L753 178Z" fill="#5b84d5" stroke="#5b84d5"></path><path d="M228 390L345 459L364 323Z" fill="#5675d0" stroke="#5675d0"></path><path d="M364 323L345 459L433 443Z" fill="#6725a9" stroke="#6725a9"></path><path d="M433 443L404 540L515 540Z" fill="#603fb6" stroke="#603fb6"></path><path d="M310 91L273 119L386 213Z" fill="#72a1db" stroke="#72a1db"></path><path d="M444 0L363 0L310 91Z" fill="#5675d0" stroke="#5675d0"></path><path d="M310 91L199 0L273 119Z" fill="#6725a9" stroke="#6725a9"></path><path d="M829 324L875 249L753 178Z" fill="#72a1db" stroke="#72a1db"></path><path d="M345 459L404 540L433 443Z" fill="#5664ca" stroke="#5664ca"></path><path d="M725 540L850 407L704 440Z" fill="#6593d8" stroke="#6593d8"></path><path d="M960 305L960 234L875 249Z" fill="#5a53c1" stroke="#5a53c1"></path><path d="M600 540L725 540L625 475Z" fill="#5a53c1" stroke="#5a53c1"></path><path d="M875 249L850 73L753 178Z" fill="#5a53c1" stroke="#5a53c1"></path><path d="M192 228L223 372L364 323Z" fill="#83aedc" stroke="#83aedc"></path><path d="M345 459L197 540L404 540Z" fill="#6593d8" stroke="#6593d8"></path><path d="M223 372L228 390L364 323Z" fill="#5675d0" stroke="#5675d0"></path><path d="M273 119L192 228L386 213Z" fill="#5675d0" stroke="#5675d0"></path><path d="M98 78L163 177L273 119Z" fill="#5664ca" stroke="#5664ca"></path><path d="M273 119L163 177L192 228Z" fill="#5664ca" stroke="#5664ca"></path><path d="M192 228L132 344L223 372Z" fill="#6725a9" stroke="#6725a9"></path><path d="M223 372L150 411L228 390Z" fill="#603fb6" stroke="#603fb6"></path><path d="M960 0L872 0L850 73Z" fill="#72a1db" stroke="#72a1db"></path><path d="M850 73L872 0L709 0Z" fill="#6593d8" stroke="#6593d8"></path><path d="M960 305L875 249L829 324Z" fill="#83aedc" stroke="#83aedc"></path><path d="M875 249L960 107L850 73Z" fill="#6593d8" stroke="#6593d8"></path><path d="M960 394L829 324L850 407Z" fill="#72a1db" stroke="#72a1db"></path><path d="M960 394L960 305L829 324Z" fill="#5664ca" stroke="#5664ca"></path><path d="M960 234L960 107L875 249Z" fill="#72a1db" stroke="#72a1db"></path><path d="M883 540L960 394L850 407Z" fill="#603fb6" stroke="#603fb6"></path><path d="M0 211L132 344L192 228Z" fill="#83aedc" stroke="#83aedc"></path><path d="M228 390L197 540L345 459Z" fill="#5664ca" stroke="#5664ca"></path><path d="M363 0L199 0L310 91Z" fill="#6725a9" stroke="#6725a9"></path><path d="M132 344L150 411L223 372Z" fill="#5664ca" stroke="#5664ca"></path><path d="M725 540L883 540L850 407Z" fill="#603fb6" stroke="#603fb6"></path><path d="M150 411L197 540L228 390Z" fill="#603fb6" stroke="#603fb6"></path><path d="M960 107L960 0L850 73Z" fill="#83aedc" stroke="#83aedc"></path><path d="M199 0L98 78L273 119Z" fill="#6593d8" stroke="#6593d8"></path><path d="M163 177L0 211L192 228Z" fill="#5675d0" stroke="#5675d0"></path><path d="M883 540L960 540L960 394Z" fill="#5664ca" stroke="#5664ca"></path><path d="M199 0L98 0L98 78Z" fill="#83aedc" stroke="#83aedc"></path><path d="M0 402L120 540L150 411Z" fill="#5a53c1" stroke="#5a53c1"></path><path d="M150 411L120 540L197 540Z" fill="#603fb6" stroke="#603fb6"></path><path d="M0 402L150 411L132 344Z" fill="#5a53c1" stroke="#5a53c1"></path><path d="M0 96L0 211L98 78Z" fill="#6593d8" stroke="#6593d8"></path><path d="M98 78L0 211L163 177Z" fill="#5675d0" stroke="#5675d0"></path><path d="M0 211L0 337L132 344Z" fill="#6725a9" stroke="#6725a9"></path><path d="M0 337L0 402L132 344Z" fill="#603fb6" stroke="#603fb6"></path><path d="M0 0L0 96L98 78Z" fill="#603fb6" stroke="#603fb6"></path><path d="M98 0L0 0L98 78Z" fill="#97bbdd" stroke="#97bbdd"></path><path d="M0 402L0 540L120 540Z" fill="#acc8de" stroke="#acc8de"></path></g></svg>